<svg width="74" height="91" viewBox="0 0 74 91" fill="none" xmlns="http://www.w3.org/2000/svg">
<g clip-path="url(#clip0_58_1488)">
<g clip-path="url(#clip1_58_1488)">
<path d="M38.9147 49.2713H46.3728V58.6725H50.1445C51.8874 58.6725 53.6759 58.29 55.3275 57.6C56.1366 57.2625 57.046 56.79 57.846 56.1975C56.7936 54.5025 56.2552 52.365 56.097 50.2538C55.8811 47.385 56.3525 43.65 57.9251 41.4038L58.7098 40.2863L59.6436 41.2125C61.9948 43.5413 63.975 46.7963 64.3217 50.5088C67.1535 49.4813 70.478 49.725 72.9752 51.5025L74.0003 52.23L73.4619 53.5275C71.351 58.6088 66.9375 60.18 62.6214 59.9025C56.164 79.7325 42.1054 89.1187 25.0599 89.1187C16.2542 89.1187 8.17254 85.0613 3.57354 75.4275L3.4975 75.27L2.82529 73.59C1.271 69.3488 0.753914 64.7063 1.10371 60.0638L1.21016 58.6725H7.58854V49.2713H15.0467V40.0763H29.963V30.8813H38.9147V49.2713Z" fill="#364548"/>
<path d="M63.0774 52.7513C63.5762 47.9588 60.6684 44.1975 58.8647 42.4088C56.7872 45.3713 56.4617 53.1375 59.7254 56.4075C57.9065 58.3988 54.071 60.2063 50.1442 60.2063H2.34441C1.9642 65.2613 2.68203 69.915 4.32453 73.8975L4.86899 75.1238C5.2127 75.8438 5.58987 76.5413 5.99441 77.2088C7.95932 77.3663 9.77216 77.4187 11.4299 77.3737C14.6875 77.2837 17.3459 76.8113 19.3595 75.9488C19.4991 75.9051 19.647 75.9278 19.7738 76.0121C19.9005 76.0965 19.997 76.2365 20.044 76.4043C20.0911 76.5722 20.0853 76.7558 20.0278 76.9186C19.9703 77.0815 19.8653 77.2118 19.7336 77.2837C19.466 77.4 19.1861 77.505 18.8972 77.6062C17.109 78.2235 15.2706 78.5933 13.4161 78.7088C13.5469 78.7125 13.2792 78.7313 13.2792 78.7313L13.0359 78.7537C12.172 78.8137 11.2413 78.825 10.2862 78.825C9.24291 78.825 8.21787 78.8025 7.06812 78.7275L7.0377 78.75C11.0192 84.27 17.2486 87.5775 25.0535 87.5775C41.5728 87.5775 55.5857 78.5475 61.7907 58.2788C66.192 58.8375 70.423 57.45 72.3484 52.8188C69.2885 50.6475 65.3464 51.3413 63.0774 52.7513Z" fill="#22A0C8"/>
<path d="M63.0774 52.7513C63.5762 47.9588 60.6684 44.1975 58.8647 42.4088C56.7872 45.3713 56.4617 53.1375 59.7254 56.4075C57.9065 58.3988 54.071 60.2063 50.1442 60.2063H5.17317C4.9785 67.9463 7.30841 73.8188 11.4299 77.3738C14.6875 77.2838 17.3459 76.8113 19.3595 75.9488C19.4991 75.9051 19.647 75.9278 19.7738 76.0121C19.9005 76.0965 19.997 76.2365 20.044 76.4043C20.0911 76.5722 20.0853 76.7558 20.0278 76.9186C19.9703 77.0815 19.8653 77.2118 19.7336 77.2837C19.466 77.4 19.1861 77.505 18.8972 77.6063C17.0611 78.2409 15.1741 78.6257 13.2701 78.7538L13.2153 78.69C18.8363 82.245 26.991 82.2337 36.335 77.805C46.8136 72.84 56.5682 63.3863 63.3724 52.5675L63.0774 52.7513Z" fill="#37B1D9"/>
<path d="M2.43262 66.345C2.7307 69.0525 3.37249 71.5875 4.32453 73.8937L4.86899 75.12C5.2127 75.84 5.58987 76.5375 5.99441 77.205C7.95933 77.3625 9.77216 77.415 11.4299 77.37C14.6875 77.28 17.3459 76.8075 19.3595 75.945C19.4991 75.9014 19.647 75.924 19.7738 76.0084C19.9005 76.0927 19.997 76.2327 20.044 76.4006C20.0911 76.5685 20.0853 76.752 20.0278 76.9149C19.9703 77.0777 19.8653 77.208 19.7336 77.28C19.466 77.3962 19.1861 77.5012 18.8972 77.6025C17.0634 78.2289 15.1795 78.6061 13.2792 78.7275C13.2032 78.735 13.0724 78.735 12.9963 78.7387C12.1325 78.7987 11.2109 78.8363 10.2558 78.8363C9.21249 78.8363 8.14791 78.81 7.0012 78.7387C10.9827 84.2587 17.2486 87.5812 25.0565 87.5812C39.2003 87.5812 51.5038 80.9625 58.6457 66.3412H2.43262V66.345Z" fill="#1B81A5"/>
<path d="M5.6051 66.345C6.45069 71.1 8.48252 74.8313 11.4329 77.37C14.6906 77.28 17.349 76.8075 19.3626 75.945C19.5022 75.9014 19.6501 75.924 19.7768 76.0084C19.9036 76.0927 20 76.2327 20.0471 76.4006C20.0941 76.5685 20.0883 76.752 20.0309 76.9149C19.9734 77.0777 19.8684 77.208 19.7367 77.28C19.469 77.3963 19.1892 77.5013 18.9002 77.6025C17.053 78.2289 15.156 78.6061 13.2427 78.7275C18.8637 82.2825 26.9941 82.23 36.3381 77.805C41.9926 75.1275 47.4341 71.1413 52.316 66.3375H5.6051V66.345Z" fill="#1D91B4"/>
<path d="M8.83228 50.805H15.2958V58.7738H8.83228V50.805ZM9.37065 51.4688H9.88165V58.11H9.37065V51.4688ZM10.3288 51.4688H10.858V58.11H10.3288V51.4688ZM11.3082 51.4688H11.8374V58.11H11.3082V51.4688ZM12.2876 51.4688H12.8169V58.11H12.2876V51.4688ZM13.267 51.4688H13.7963V58.11H13.267V51.4688ZM14.2464 51.4688H14.7574V58.11H14.2464V51.4688ZM16.2904 41.61H22.754V49.5787H16.2874L16.2904 41.61ZM16.8288 42.2737H17.3398V48.915H16.8288V42.2737ZM17.7869 42.2737H18.3162V48.915H17.7869V42.2737ZM18.7664 42.2737H19.2956V48.915H18.7664V42.2737ZM19.7458 42.2737H20.275V48.915H19.7458V42.2737ZM20.7252 42.2737H21.2544V48.915H20.7252V42.2737ZM21.7046 42.2737H22.2156V48.915H21.7046V42.2737Z" fill="#23A3C2"/>
<path d="M16.2905 50.805H22.754V58.7738H16.2874L16.2905 50.805ZM16.8288 51.4688H17.3398V58.11H16.8288V51.4688ZM17.787 51.4688H18.3162V58.11H17.787V51.4688ZM18.7664 51.4688H19.2956V58.11H18.7664V51.4688ZM19.7458 51.4688H20.275V58.11H19.7458V51.4688ZM20.7252 51.4688H21.2545V58.11H20.7252V51.4688ZM21.7046 51.4688H22.2156V58.11H21.7046V51.4688Z" fill="#34BBDE"/>
<path d="M23.7486 50.805H30.2121V58.7738H23.7486V50.805ZM24.287 51.4688H24.798V58.11H24.287V51.4688ZM25.2451 51.4688H25.7743V58.11H25.2451V51.4688ZM26.2245 51.4688H26.7538V58.11H26.2245V51.4688ZM27.2039 51.4688H27.7332V58.11H27.2039V51.4688ZM28.1833 51.4688H28.7156V58.11H28.1833V51.4688ZM29.1628 51.4688H29.6738V58.11H29.1628V51.4688Z" fill="#23A3C2"/>
<path d="M23.7486 41.61H30.2121V49.5787H23.7486V41.61ZM24.287 42.2737H24.798V48.915H24.287V42.2737ZM25.2451 42.2737H25.7743V48.915H25.2451V42.2737ZM26.2245 42.2737H26.7538V48.915H26.2245V42.2737ZM27.2039 42.2737H27.7332V48.915H27.2039V42.2737ZM28.1833 42.2737H28.7156V48.915H28.1833V42.2737ZM29.1628 42.2737H29.6738V48.915H29.1628V42.2737ZM31.2068 50.805H37.6703V58.7738H31.2068V50.805ZM31.7451 51.4688H32.2561V58.11H31.7451V51.4688ZM32.7033 51.4688H33.2325V58.11H32.7033V51.4688ZM33.6827 51.4688H34.2119V58.11H33.6827V51.4688ZM34.6621 51.4688H35.1913V58.11H34.6621V51.4688ZM35.6415 51.4688H36.1708V58.11H35.6415V51.4688ZM36.6209 51.4688H37.1319V58.11H36.6209V51.4688Z" fill="#34BBDE"/>
<path d="M31.2068 41.61H37.6703V49.5787H31.2068V41.61ZM31.7452 42.2737H32.2562V48.915H31.7452V42.2737ZM32.7033 42.2737H33.2325V48.915H32.7033V42.2737ZM33.6827 42.2737H34.212V48.915H33.6827V42.2737ZM34.6621 42.2737H35.1914V48.915H34.6621V42.2737ZM35.6415 42.2737H36.1708V48.915H35.6415V42.2737ZM36.621 42.2737H37.132V48.915H36.621V42.2737Z" fill="#23A3C2"/>
<path d="M31.2068 32.415H37.6703V40.3838H31.2068V32.415ZM31.7452 33.0788H32.2562V39.72H31.7452V33.0788ZM32.7033 33.0788H33.2325V39.72H32.7033V33.0788ZM33.6827 33.0788H34.212V39.72H33.6827V33.0788ZM34.6621 33.0788H35.1914V39.72H34.6621V33.0788ZM35.6415 33.0788H36.1708V39.72H35.6415V33.0788ZM36.621 33.0788H37.132V39.72H36.621V33.0788Z" fill="#34BBDE"/>
<path d="M38.665 50.805H45.1285V58.7738H38.665V50.805ZM39.2034 51.4688H39.7144V58.11H39.2034V51.4688ZM40.1615 51.4688H40.6907V58.11H40.1615V51.4688ZM41.1409 51.4688H41.6701V58.11H41.1409V51.4688ZM42.1203 51.4688H42.6496V58.11H42.1203V51.4688ZM43.0997 51.4688H43.629V58.11H43.0997V51.4688ZM44.0791 51.4688H44.5901V58.11H44.0791V51.4688Z" fill="#23A3C2"/>
<path d="M22.3495 71.6963C22.8226 71.6888 23.2788 71.9134 23.6176 72.3205C23.9564 72.7277 24.1502 73.2842 24.1562 73.8675C24.1623 74.4508 23.9801 75.0132 23.6499 75.4309C23.3196 75.8487 22.8682 76.0875 22.3951 76.095H22.3464C21.8861 76.0711 21.451 75.8287 21.1323 75.4184C20.8135 75.0082 20.6358 74.4619 20.6362 73.8938C20.6366 73.3257 20.8151 72.7798 21.1344 72.3703C21.4537 71.9607 21.8891 71.7192 22.3495 71.6963Z" fill="#D3ECEC"/>
<path d="M22.3495 72.3187C22.5137 72.3187 22.6688 72.3562 22.8118 72.4237C22.7102 72.4925 22.6302 72.6013 22.5848 72.7327C22.5393 72.8642 22.531 73.0107 22.5612 73.1486C22.5914 73.2866 22.6583 73.4081 22.7511 73.4936C22.844 73.579 22.9575 73.6236 23.0734 73.62C23.1668 73.6204 23.2585 73.5895 23.3389 73.5308C23.4192 73.472 23.4851 73.3875 23.5296 73.2862C23.6354 73.5981 23.657 73.9437 23.5911 74.2718C23.5253 74.6 23.3756 74.8933 23.1641 75.1085C22.9527 75.3236 22.6907 75.4492 22.4169 75.4667C22.143 75.4841 21.8719 75.3924 21.6436 75.2053C21.4153 75.0181 21.2419 74.7453 21.149 74.4273C21.0561 74.1092 21.0487 73.7628 21.1279 73.4391C21.207 73.1155 21.3685 72.8318 21.5885 72.6301C21.8085 72.4283 22.0753 72.3192 22.3495 72.3187Z" fill="#364548"/>
<path d="M27.0884 87.5363C22.6719 84.9525 20.2477 81.4388 18.9002 77.6063C17.2608 78.1838 15.2867 78.5513 12.9964 78.7125C12.1325 78.7725 11.2261 78.8025 10.2741 78.8025C9.17603 78.8025 8.01715 78.7613 6.80353 78.6825C10.855 83.6738 15.8373 87.5138 25.0627 87.585C25.7409 87.585 26.4162 87.57 27.0884 87.5363Z" fill="#BDD9D7"/>
<path d="M20.5397 81.1463C19.8916 80.0423 19.3419 78.8555 18.9002 77.6063C17.2608 78.1838 15.2867 78.555 12.9963 78.7125C14.5719 79.7663 16.8228 80.7413 20.5397 81.1463Z" fill="#D3ECEC"/>
</g>
</g>
<defs>
<clipPath id="clip0_58_1488">
<rect width="73" height="90" fill="white" transform="translate(0.900024 0.5)"/>
</clipPath>
<clipPath id="clip1_58_1488">
<rect width="73" height="90" fill="white" transform="translate(1 15)"/>
</clipPath>
</defs>
</svg>
