<svg width="62" height="81" viewBox="0 0 62 81" fill="none" xmlns="http://www.w3.org/2000/svg">
<g clip-path="url(#clip0_58_1404)">
<path d="M22.1018 64.8174C12.2541 67.7894 28.0935 73.9292 40.633 68.1259C38.579 67.2634 37.1059 66.2685 37.1059 66.2685C31.5144 67.4103 28.9206 67.5001 23.8449 66.8738C19.6558 66.3555 22.1018 64.8174 22.1018 64.8174ZM39.1317 59.0196C31.7202 60.5599 27.4393 60.5106 22.0172 59.9064C17.8245 59.4381 20.5692 57.2431 20.5692 57.2431C9.72341 61.1319 26.607 65.5446 41.7655 60.755C40.1543 60.142 39.1317 59.0196 39.1317 59.0196ZM44.9396 25.4439C44.9396 25.4439 23.0136 31.3575 33.4853 44.3932C36.5763 48.2371 32.6746 51.6931 32.6746 51.6931C32.6746 51.6931 40.5196 47.3192 36.9176 41.8396C33.552 36.7319 30.9721 34.1944 44.9396 25.4439ZM50.0698 70.4206C50.0698 70.4206 51.8806 72.0336 48.0748 73.2802C40.8388 75.6481 17.9517 76.362 11.5947 73.3749C9.31137 72.3007 13.5954 70.8114 14.9433 70.4971C16.3488 70.1684 17.1513 70.2283 17.1513 70.2283C14.6103 68.2955 0.724878 74.0251 10.1 75.6686C35.664 80.1449 56.6998 73.6526 50.0698 70.4206ZM41.2837 53.6076C42.5126 52.7019 44.21 51.9153 44.21 51.9153C44.21 51.9153 39.3744 52.8493 34.5567 53.2866C28.659 53.821 22.3327 53.9263 19.1571 53.4673C11.6389 52.3815 23.2789 49.3945 23.2789 49.3945C23.2789 49.3945 18.7573 49.0641 13.1993 51.9685C6.62521 55.4023 29.4604 56.9676 41.2837 53.6076ZM44.1617 62.0022C44.1063 62.1629 43.9216 62.3436 43.9216 62.3436C59.9683 57.7868 54.0685 46.2811 46.3959 49.1933C45.7226 49.4504 45.3696 50.0485 45.3696 50.0485C45.3696 50.0485 45.795 49.8634 46.7437 49.6494C50.6224 48.7764 56.1795 55.2582 44.1617 62.0022ZM30.6011 49.2692C28.2336 43.4886 20.2054 38.4313 30.6047 29.5595C43.5717 18.5032 36.9181 11.3108 36.9181 11.3108C39.6017 22.7335 27.4506 26.1839 23.0644 33.2975C20.0776 38.1447 24.5304 43.3533 30.6011 49.2692ZM44.5958 77.9522C34.7507 79.9543 22.6067 79.7209 15.4062 78.4366C15.4062 78.4366 16.8809 79.7558 24.4606 80.283C35.9934 81.0795 53.7083 79.8395 54.127 73.9442C54.127 73.9442 53.3214 76.1791 44.5958 77.9522Z" fill="#EA2D2E"/>
</g>
<defs>
<clipPath id="clip0_58_1404">
<rect width="62" height="80" fill="white" transform="translate(0 0.5)"/>
</clipPath>
</defs>
</svg>
