<svg width="58" height="64" viewBox="0 0 58 64" fill="none" xmlns="http://www.w3.org/2000/svg">
<g clip-path="url(#clip0_58_1381)">
<path d="M29.2177 64C28.3597 64 27.5589 63.7668 26.8153 63.3585L19.208 58.7517C18.0641 58.1102 18.636 57.877 18.9792 57.7603C20.5236 57.2355 20.8096 57.1189 22.4111 56.1858C22.5827 56.0692 22.8114 56.1275 22.983 56.2442L28.8172 59.8014C29.0461 59.918 29.332 59.918 29.5036 59.8014L52.3256 46.3307C52.5544 46.214 52.6688 45.9808 52.6688 45.6892V18.806C52.6688 18.5145 52.5544 18.2812 52.3256 18.1646L29.5036 4.75222C29.2748 4.63559 28.9888 4.63559 28.8172 4.75222L5.9953 18.1646C5.76651 18.2812 5.65211 18.5728 5.65211 18.806V45.6892C5.65211 45.9224 5.76651 46.214 5.9953 46.3307L12.2299 50.0045C15.6046 51.7539 17.7208 49.7129 17.7208 47.6719V21.1386C17.7208 20.7887 18.0069 20.4389 18.4072 20.4389H21.3244C21.6675 20.4389 22.0107 20.7305 22.0107 21.1386V47.6719C22.0107 52.2788 19.5512 54.9613 15.2613 54.9613C13.9458 54.9613 12.9163 54.9613 9.99912 53.5034L3.99337 50.0045C2.50623 49.1297 1.59106 47.4969 1.59106 45.7475V18.8644C1.59106 17.115 2.50623 15.4822 3.99337 14.6074L26.8153 1.1367C28.2453 0.3203 30.19 0.3203 31.62 1.1367L54.4419 14.6074C55.929 15.4822 56.8442 17.115 56.8442 18.8644V45.7475C56.8442 47.4969 55.929 49.1297 54.4419 50.0045L31.62 63.4752C30.9336 63.7668 30.0756 64 29.2177 64Z" fill="#5FA04E"/>
<path d="M36.3102 45.5142C26.3005 45.5142 24.2415 40.849 24.2415 36.8836C24.2415 36.5338 24.5274 36.1839 24.9278 36.1839H27.9021C28.2453 36.1839 28.5313 36.4171 28.5313 36.767C28.9888 39.8577 30.3044 41.3739 36.3674 41.3739C41.172 41.3739 43.2311 40.2659 43.2311 37.6417C43.2311 36.1256 42.6591 35.0176 35.1662 34.2594C28.9316 33.618 25.0422 32.2185 25.0422 27.1451C25.0422 22.4215 28.9316 19.6225 35.4522 19.6225C42.7735 19.6225 46.377 22.1883 46.8346 27.7865C46.8346 27.9615 46.7774 28.1364 46.663 28.3114C46.5486 28.428 46.377 28.5446 46.2054 28.5446H43.1739C42.8879 28.5446 42.6019 28.3114 42.5447 28.0198C41.8584 24.8125 40.0852 23.7628 35.395 23.7628C30.1328 23.7628 29.5036 25.6289 29.5036 27.0284C29.5036 28.7196 30.2472 29.2444 37.3397 30.1775C44.3751 31.1105 47.6925 32.4517 47.6925 37.4668C47.6925 42.5985 43.5171 45.5142 36.3102 45.5142Z" fill="#5FA04E"/>
</g>
<defs>
<clipPath id="clip0_58_1381">
<rect width="56.32" height="64" fill="white" transform="translate(0.958191)"/>
</clipPath>
</defs>
</svg>
