<svg width="105" height="64" viewBox="0 0 105 64" fill="none" xmlns="http://www.w3.org/2000/svg">
<g clip-path="url(#clip0_58_1355)">
<mask id="mask0_58_1355" style="mask-type:luminance" maskUnits="userSpaceOnUse" x="0" y="0" width="105" height="63">
<path d="M0.200012 0H104.927V62.8364H0.200012V0Z" fill="white"/>
</mask>
<g mask="url(#mask0_58_1355)">
<path fill-rule="evenodd" clip-rule="evenodd" d="M52.5636 0C38.6 0 29.8727 6.98182 26.3818 20.9455C31.6182 13.9636 37.7273 11.3455 44.7091 13.0909C48.6926 14.0858 51.5396 16.9775 54.6912 20.1755C59.8247 25.3867 65.767 31.4182 78.7455 31.4182C92.7091 31.4182 101.436 24.4364 104.927 10.4727C99.6909 17.4545 93.5818 20.0727 86.6 18.3273C82.6165 17.3324 79.7695 14.4407 76.6179 11.2427C71.4844 6.03151 65.5421 0 52.5636 0ZM26.3818 31.4182C12.4182 31.4182 3.69092 38.4 0.200012 52.3636C5.43638 45.3818 11.5455 42.7636 18.5273 44.5091C22.5108 45.5059 25.3578 48.3956 28.5093 51.5937C33.6429 56.8048 39.5852 62.8364 52.5636 62.8364C66.5273 62.8364 75.2546 55.8545 78.7455 41.8909C73.5091 48.8727 67.4 51.4909 60.4182 49.7455C56.4347 48.7505 53.5876 45.8589 50.4361 42.6608C45.3026 37.4497 39.3603 31.4182 26.3818 31.4182Z" fill="#38BDF8"/>
</g>
</g>
<defs>
<clipPath id="clip0_58_1355">
<rect width="104.727" height="64" fill="white" transform="translate(0.200012)"/>
</clipPath>
</defs>
</svg>
