<svg width="44" height="65" viewBox="0 0 44 65" fill="none" xmlns="http://www.w3.org/2000/svg">
<g clip-path="url(#clip0_58_1526)">
<path d="M22 32.5C22 29.671 23.1238 26.9579 25.1242 24.9575C27.1246 22.9571 29.8377 21.8333 32.6667 21.8333C35.4956 21.8333 38.2088 22.9571 40.2091 24.9575C42.2095 26.9579 43.3333 29.671 43.3333 32.5C43.3333 35.329 42.2095 38.0421 40.2091 40.0425C38.2088 42.0429 35.4956 43.1667 32.6667 43.1667C29.8377 43.1667 27.1246 42.0429 25.1242 40.0425C23.1238 38.0421 22 35.329 22 32.5Z" fill="#1ABCFE"/>
<path d="M0.666626 53.8333C0.666626 51.0044 1.79043 48.2913 3.79082 46.2909C5.79121 44.2905 8.50432 43.1667 11.3333 43.1667H22V53.8333C22 56.6623 20.8762 59.3754 18.8758 61.3758C16.8754 63.3762 14.1623 64.5 11.3333 64.5C8.50432 64.5 5.79121 63.3762 3.79082 61.3758C1.79043 59.3754 0.666626 56.6623 0.666626 53.8333Z" fill="#0ACF83"/>
<path d="M22 0.5V21.8333H32.6667C35.4956 21.8333 38.2088 20.7095 40.2091 18.7091C42.2095 16.7088 43.3333 13.9956 43.3333 11.1667C43.3333 8.33769 42.2095 5.62458 40.2091 3.62419C38.2088 1.62381 35.4956 0.5 32.6667 0.5L22 0.5Z" fill="#FF7262"/>
<path d="M0.666626 11.1667C0.666626 13.9956 1.79043 16.7088 3.79082 18.7091C5.79121 20.7095 8.50432 21.8333 11.3333 21.8333H22V0.5H11.3333C8.50432 0.5 5.79121 1.62381 3.79082 3.62419C1.79043 5.62458 0.666626 8.33769 0.666626 11.1667Z" fill="#F24E1E"/>
<path d="M0.666626 32.5C0.666626 35.329 1.79043 38.0421 3.79082 40.0425C5.79121 42.0429 8.50432 43.1667 11.3333 43.1667H22V21.8333H11.3333C8.50432 21.8333 5.79121 22.9571 3.79082 24.9575C1.79043 26.9579 0.666626 29.671 0.666626 32.5Z" fill="#A259FF"/>
</g>
<defs>
<clipPath id="clip0_58_1526">
<rect width="42.6667" height="64" fill="white" transform="translate(0.666626 0.5)"/>
</clipPath>
</defs>
</svg>
