<svg width="65" height="64" viewBox="0 0 65 64" fill="none" xmlns="http://www.w3.org/2000/svg">
<g clip-path="url(#clip0_58_1392)">
<path d="M64.3091 49.59C61.9811 50.182 60.5411 49.616 59.2491 47.676L50.0611 34.964L48.7331 33.204L38.0031 47.718C36.7771 49.464 35.4911 50.224 33.2031 49.606L46.9431 31.162L34.1511 14.502C36.3511 14.074 37.8711 14.292 39.2211 16.262L48.7511 29.132L58.3511 16.332C59.5811 14.586 60.9031 13.922 63.1111 14.566L58.1511 21.142L51.4311 29.892C50.6311 30.892 50.7411 31.576 51.4771 32.542L64.3091 49.59ZM0.325082 30.854L1.44908 25.326C4.50908 14.386 17.0491 9.84 25.6971 16.6C30.7511 20.576 32.0071 26.2 31.7571 32.5H3.26908C2.84108 43.84 11.0031 50.684 21.4091 47.192C25.0591 45.966 27.2091 43.108 28.2851 39.532C28.8311 37.74 29.7351 37.46 31.4191 37.972C30.5591 42.444 28.6191 46.18 24.5191 48.518C18.3931 52.018 9.64908 50.886 5.04908 46.022C2.30908 43.2 1.17708 39.624 0.669082 35.8C0.589082 35.168 0.429082 34.566 0.309082 33.96C0.319749 32.9253 0.325082 31.8907 0.325082 30.856V30.854ZM3.32108 30.094H29.0651C28.8971 21.894 23.7911 16.07 16.8131 16.02C9.15308 15.96 3.65308 21.646 3.32108 30.094Z" fill="#F9FAFB"/>
</g>
<defs>
<clipPath id="clip0_58_1392">
<rect width="64" height="64" fill="white" transform="translate(0.309082)"/>
</clipPath>
</defs>
</svg>
