<svg width="71" height="64" viewBox="0 0 71 64" fill="none" xmlns="http://www.w3.org/2000/svg">
<g clip-path="url(#clip0_58_1336)">
<path d="M35.6 38.7725C39.2723 38.7725 42.2494 35.7403 42.2494 32C42.2494 28.2597 39.2723 25.2275 35.6 25.2275C31.9277 25.2275 28.9507 28.2597 28.9507 32C28.9507 35.7403 31.9277 38.7725 35.6 38.7725Z" fill="#087EA4"/>
<path d="M35.6 47.2381C53.9617 47.2381 68.8468 40.4158 68.8468 32C68.8468 23.5842 53.9617 16.7619 35.6 16.7619C17.2383 16.7619 2.35324 23.5842 2.35324 32C2.35324 40.4158 17.2383 47.2381 35.6 47.2381Z" stroke="#087EA4" stroke-width="3"/>
<path d="M22.6434 39.619C31.8242 55.8152 45.0676 65.5336 52.2234 61.3257C59.3791 57.1178 57.7375 40.5771 48.5566 24.3809C39.3758 8.1848 26.1324 -1.53361 18.9766 2.67427C11.8209 6.88216 13.4625 23.4229 22.6434 39.619Z" stroke="#087EA4" stroke-width="3"/>
<path d="M22.6434 24.3809C13.4625 40.5771 11.8209 57.1178 18.9766 61.3257C26.1324 65.5336 39.3758 55.8152 48.5566 39.619C57.7375 23.4229 59.3791 6.88216 52.2234 2.67427C45.0676 -1.53361 31.8242 8.1848 22.6434 24.3809Z" stroke="#087EA4" stroke-width="3"/>
</g>
<defs>
<clipPath id="clip0_58_1336">
<rect width="69.8182" height="64" fill="white" transform="translate(0.690903)"/>
</clipPath>
</defs>
</svg>
