<svg width="17" height="16" viewBox="0 0 17 16" fill="none" xmlns="http://www.w3.org/2000/svg">
<g clip-path="url(#clip0_58_1640)">
<path d="M8.50001 14.6667C12.1819 14.6667 15.1667 11.6819 15.1667 8C15.1667 4.3181 12.1819 1.33333 8.50001 1.33333C4.81811 1.33333 1.83334 4.3181 1.83334 8C1.83334 11.6819 4.81811 14.6667 8.50001 14.6667Z" stroke="#D1D5DB" stroke-width="2" stroke-linecap="round" stroke-linejoin="round"/>
<path d="M10.5 6.236C10.1417 5.8298 9.6682 5.54234 9.14251 5.41186C8.61682 5.28139 8.06387 5.31408 7.55722 5.5056C7.05057 5.69712 6.61426 6.03838 6.30633 6.48397C5.9984 6.92956 5.83347 7.45836 5.83347 8C5.83347 8.54164 5.9984 9.07043 6.30633 9.51603C6.61426 9.96162 7.05057 10.3029 7.55722 10.4944C8.06387 10.6859 8.61682 10.7186 9.14251 10.5881C9.6682 10.4577 10.1417 10.1702 10.5 9.764" stroke="#D1D5DB" stroke-width="2" stroke-linecap="round" stroke-linejoin="round"/>
</g>
<defs>
<clipPath id="clip0_58_1640">
<rect width="16" height="16" fill="white" transform="translate(0.5)"/>
</clipPath>
</defs>
</svg>
