<svg width="64" height="64" viewBox="0 0 64 64" fill="none" xmlns="http://www.w3.org/2000/svg">
<path d="M56.2666 29.4667L34.5333 7.73333C33.8666 7.06667 32.9333 6.66667 32 6.66667C31.0666 6.66667 30.1333 7.06667 29.4666 7.73333L24.8 12.4L30.2666 17.8667C30.8 17.6 31.3333 17.4667 32 17.4667C34.2666 17.4667 36 19.2 36 21.4667C36 22.1333 35.8666 22.6667 35.6 23.2L40.9333 28.5333C41.4666 28.2667 42 28.1333 42.6666 28.1333C44.9333 28.1333 46.6666 29.8667 46.6666 32.1333C46.6666 34.4 44.9333 36.1333 42.6666 36.1333C40.4 36.1333 38.6666 34.4 38.6666 32.1333C38.6666 31.4667 38.8 30.9333 39.0666 30.4L33.7333 25.0667C33.6 25.0667 33.4666 25.2 33.3333 25.2V39.0667C34.9333 39.6 36 41.0667 36 42.8C36 45.0667 34.2666 46.8 32 46.8C29.7333 46.8 28 45.0667 28 42.8C28 41.0667 29.0666 39.6 30.6666 39.0667V25.0667C29.0666 24.5333 28 23.0667 28 21.3333C28 20.6667 28.1333 20.1333 28.4 19.6L22.9333 14.1333L7.73329 29.4667C7.06663 30.1333 6.66663 31.0667 6.66663 32C6.66663 32.9333 7.06663 33.8667 7.73329 34.5333L29.4666 56.2667C30.1333 56.9333 31.0666 57.3333 32 57.3333C32.9333 57.3333 33.8666 56.9333 34.5333 56.2667L56.2666 34.5333C56.9333 33.8667 57.3333 32.9333 57.3333 32C57.3333 31.0667 56.9333 30.1333 56.2666 29.4667Z" fill="#F4511E"/>
</svg>
